# xmcd CD database file
#
# Track frame offsets:
#	150
#	42078
#	46763
#	75792
#	110038
#	124255
#	134534
#	154264
#	162073
#
# Disc length: 2415 seconds
#
# Revision: 0
# Processed by: cddbd v1.5.2PL0 Copyright (c) Steve Scherf et al.
# Submitted via: CDex 1.77
#
DISCID=69096d09
DTITLE=Coax Orchestra - lent et sexuel
DYEAR=2014
DGENRE=Jazz
TTITLE0=lent et sexuel
TTITLE1=intro
TTITLE2=discoax
TTITLE3=funky
TTITLE4=musique d'ascenseur
TTITLE5=rituel
TTITLE6=fable
TTITLE7=yoyochie
TTITLE8=coccibelle
EXTD=YEAR: 2014
EXTT0=
EXTT1=
EXTT2=
EXTT3=
EXTT4=
EXTT5=
EXTT6=
EXTT7=
EXTT8=
PLAYORDER=
